<svg xmlns="http://www.w3.org/2000/svg" version="1.1" xmlns:xlink="http://www.w3.org/1999/xlink" xmlns:svgjs="http://svgjs.dev/svgjs" width="1500" height="571" viewBox="0 0 1500 571"><g transform="matrix(1,0,0,1,-0.9090909090909918,0.28792850141309145)"><svg viewBox="0 0 396 151" data-background-color="#ffffff" preserveAspectRatio="xMidYMid meet" height="571" width="1500" xmlns="http://www.w3.org/2000/svg" xmlns:xlink="http://www.w3.org/1999/xlink"><g id="tight-bounds" transform="matrix(1,0,0,1,0.2400000000000091,-0.07614221315827763)"><svg viewBox="0 0 395.52 151.15228442631656" height="151.15228442631656" width="395.52"><g><svg viewBox="0 0 397.4975999999999 151.90804584844813" height="151.15228442631656" width="395.52"><g><rect width="397.4975999999999" height="4.345439525060407" x="0" y="77.96818520497351" fill="#6b7280" opacity="1" stroke-width="0" stroke="transparent" fill-opacity="1" class="rect-yte-0" data-fill-palette-color="primary" rx="1%" id="yte-0" data-palette-color="#6b7280"></rect></g><g><rect width="397.4975999999999" height="4.345439525060407" x="0" y="88.00137279948473" fill="#6b7280" opacity="1" stroke-width="0" stroke="transparent" fill-opacity="1" class="rect-yte-1" data-fill-palette-color="primary" rx="1%" id="yte-1" data-palette-color="#6b7280"></rect></g><g transform="matrix(1,0,0,1,0.9887999999999693,103.72230846344672)"><svg viewBox="0 0 395.52 48.18573738500139" height="48.18573738500139" width="395.52"><g id="textblocktransform"><svg viewBox="0 0 395.52 48.18573738500139" height="48.18573738500139" width="395.52" id="textblock"><g><svg viewBox="0 0 395.52 48.18573738500139" height="48.18573738500139" width="395.52"><g transform="matrix(1,0,0,1,0,0)"><svg width="395.52" viewBox="2.4 -32.55 358.67 43.699999999999996" height="48.18573738500139" data-palette-color="#6b7280"><path d="M12.75-32.5L12.75-32.5Q14.3-32.5 15.33-32.33 16.35-32.15 17.43-31.85 18.5-31.55 20.1-31.15L20.1-31.15Q20.4-29.25 20.58-27.23 20.75-25.2 20.8-24.2L20.8-24.2Q20.85-23.95 20.45-23.83 20.05-23.7 19.8-23.7L19.8-23.7Q19.45-23.7 19.25-23.9L19.25-23.9Q19.15-24.8 18.65-26 18.15-27.2 17.28-28.3 16.4-29.4 15.18-30.13 13.95-30.85 12.4-30.85L12.4-30.85Q10.4-30.85 9.25-30 8.1-29.15 7.6-27.9 7.1-26.65 7.1-25.45L7.1-25.45Q7.1-23.5 8.13-22.2 9.15-20.9 10.73-19.9 12.3-18.9 13.9-17.85L13.9-17.85Q15.1-17.1 16.55-16.2 18-15.3 19.35-14.2 20.7-13.1 21.55-11.68 22.4-10.25 22.4-8.45L22.4-8.45Q22.4-5.8 20.93-3.78 19.45-1.75 17.13-0.63 14.8 0.5 12.2 0.5L12.2 0.5Q9.75 0.5 7.48-0.05 5.2-0.6 3.4-0.95L3.4-0.95Q3.1-2.4 2.88-4.05 2.65-5.7 2.53-6.95 2.4-8.2 2.4-8.5L2.4-8.5Q2.65-8.75 2.98-8.93 3.3-9.1 3.65-9.1L3.65-9.1Q4.1-9.1 4.2-8.65L4.2-8.65Q4.35-7.95 4.83-6.73 5.3-5.5 6.23-4.2 7.15-2.9 8.63-2.02 10.1-1.15 12.3-1.15L12.3-1.15Q14.65-1.15 16.4-2.73 18.15-4.3 18.15-7.15L18.15-7.15Q18.15-9.2 17.23-10.35 16.3-11.5 14.83-12.35 13.35-13.2 11.65-14.15L11.65-14.15Q9.8-15.25 7.83-16.57 5.85-17.9 4.5-19.7 3.15-21.5 3.15-23.95L3.15-23.95Q3.15-26.55 4.53-28.48 5.9-30.4 8.1-31.45 10.3-32.5 12.75-32.5ZM39.7-21.4L39.7-21.4Q41.9-21.4 43.27-20.48 44.65-19.55 45.25-17.35L45.25-17.35Q46.85-18.8 48.77-20.1 50.7-21.4 52.45-21.4L52.45-21.4Q55.1-21.4 56.45-20.3 57.8-19.2 58.27-16.9 58.75-14.6 58.75-11.05L58.75-11.05 58.75-5.65Q58.75-4.55 58.77-3.6 58.8-2.65 59-2.05L59-2.05Q59.1-1.8 59.72-1.6 60.35-1.4 61.05-1.33 61.75-1.25 62.05-1.25L62.05-1.25Q62.2-1.05 62.22-0.55 62.25-0.05 62.05 0.15L62.05 0.15Q60.55 0.05 59.42-0.03 58.3-0.1 56.85-0.1L56.85-0.1Q55.45-0.1 54.3-0.03 53.15 0.05 51.65 0.15L51.65 0.15Q51.45-0.05 51.47-0.55 51.5-1.05 51.65-1.25L51.65-1.25Q51.95-1.25 52.67-1.33 53.4-1.4 54.05-1.6 54.7-1.8 54.75-2.05L54.75-2.05Q54.9-2.55 54.92-3.33 54.95-4.1 54.95-5.05L54.95-5.05Q54.95-5.2 54.95-5.35 54.95-5.5 54.95-5.65L54.95-5.65 54.95-10.9Q54.95-13.35 54.62-15.05 54.3-16.75 53.35-17.65 52.4-18.55 50.4-18.55L50.4-18.55Q49.2-18.55 48.1-17.93 47-17.3 46.3-16.63 45.6-15.95 45.6-15.75L45.6-15.75Q45.6-15.7 45.62-15.48 45.65-15.25 45.65-15.15L45.65-15.15Q45.75-14.45 45.8-13.4 45.85-12.35 45.85-11.65L45.85-11.65 45.85-5.65Q45.85-4.55 45.87-3.6 45.9-2.65 46.1-2.05L46.1-2.05Q46.2-1.8 46.82-1.6 47.45-1.4 48.15-1.33 48.85-1.25 49.15-1.25L49.15-1.25Q49.3-1.05 49.32-0.55 49.35-0.05 49.15 0.15L49.15 0.15Q47.65 0.05 46.52-0.03 45.4-0.1 43.95-0.1L43.95-0.1Q42.55-0.1 41.4-0.03 40.25 0.05 38.75 0.15L38.75 0.15Q38.55-0.05 38.57-0.55 38.6-1.05 38.75-1.25L38.75-1.25Q39.05-1.25 39.77-1.33 40.5-1.4 41.15-1.6 41.8-1.8 41.85-2.05L41.85-2.05Q42.05-2.65 42.07-3.6 42.1-4.55 42.1-5.65L42.1-5.65 42.1-10.65Q42.1-15.1 41.12-16.82 40.15-18.55 37.5-18.55L37.5-18.55Q36.4-18.55 35.35-18 34.3-17.45 33.62-16.82 32.95-16.2 32.95-15.85L32.95-15.85 32.95-5.65Q32.95-4.55 32.97-3.6 33-2.65 33.2-2.05L33.2-2.05Q33.3-1.8 33.92-1.6 34.55-1.4 35.25-1.33 35.95-1.25 36.25-1.25L36.25-1.25Q36.4-1.05 36.42-0.55 36.45-0.05 36.25 0.15L36.25 0.15Q34.75 0.05 33.62-0.03 32.5-0.1 31.05-0.1L31.05-0.1Q29.65-0.1 28.5-0.03 27.35 0.05 25.85 0.15L25.85 0.15Q25.65-0.05 25.67-0.55 25.7-1.05 25.85-1.25L25.85-1.25Q26.15-1.25 26.87-1.33 27.6-1.4 28.25-1.6 28.9-1.8 28.95-2.05L28.95-2.05Q29.15-2.65 29.17-3.6 29.2-4.55 29.2-5.65L29.2-5.65 29.2-14.55Q29.2-15.05 29.17-15.95 29.15-16.85 28.95-17.3L28.95-17.3Q28.8-17.75 28.1-17.93 27.4-18.1 26.7-18.13 26-18.15 25.8-18.15L25.8-18.15Q25.75-18.25 25.7-18.75 25.65-19.25 25.8-19.45L25.8-19.45Q27.7-19.7 29.5-20.2 31.3-20.7 32.75-21.5L32.75-21.5Q32.95-21.5 33.12-21.2 33.3-20.9 33.3-20.7L33.3-20.7Q33.3-20.55 33.22-20 33.15-19.45 33.07-18.9 33-18.35 33-18.15L33-18.15Q33-17.95 33.1-17.95L33.1-17.95Q33.15-17.95 33.25-18.05L33.25-18.05Q33.85-18.6 34.85-19.38 35.85-20.15 37.12-20.78 38.4-21.4 39.7-21.4ZM74.4-21.3L74.4-21.3Q75.8-21.3 77.02-20.4 78.25-19.5 79-18 79.75-16.5 79.75-14.6L79.75-14.6 79.75-4.55Q79.75-3.6 80.1-2.93 80.45-2.25 81.25-2.25L81.25-2.25Q81.95-2.25 82.35-2.55 82.75-2.85 82.85-2.9L82.85-2.9Q82.95-2.9 83-2.75 83.05-2.6 83.05-2.5L83.05-2.5Q83.05-1.95 82.8-1.55L82.8-1.55Q82.5-1.3 81.82-0.85 81.15-0.4 80.42-0.05 79.7 0.3 79.15 0.3L79.15 0.3Q78.1 0.3 77.27-0.75 76.45-1.8 76.2-2.9L76.2-2.9Q76-2.7 75.27-2.15 74.55-1.6 73.6-1.03 72.65-0.45 71.72-0.03 70.8 0.4 70.15 0.4L70.15 0.4Q67.75 0.4 66.1-1.23 64.45-2.85 64.45-5.2L64.45-5.2Q64.45-6.7 65.27-7.78 66.1-8.85 66.9-9.15L66.9-9.15Q68.3-9.65 70.02-10.23 71.75-10.8 73.25-11.35 74.75-11.9 75.45-12.2L75.45-12.2Q75.85-12.35 75.95-12.58 76.05-12.8 76.05-13.45L76.05-13.45 76.05-14.75Q76.05-15.85 75.5-16.93 74.95-18 74-18.73 73.05-19.45 71.85-19.45L71.85-19.45Q70.6-19.45 70-18.65 69.4-17.85 69.15-16.4L69.15-16.4Q68.7-14.05 66.85-14.05L66.85-14.05Q66.05-14.05 65.62-14.7 65.2-15.35 65.2-16.1L65.2-16.1Q65.2-16.25 65.3-16.68 65.4-17.1 65.55-17.3L65.55-17.3Q66.3-18 67.7-18.95 69.1-19.9 70.87-20.6 72.65-21.3 74.4-21.3ZM71.8-2.25L71.8-2.25Q72.65-2.25 73.65-2.65 74.65-3.05 75.35-3.53 76.05-4 76.05-4.25L76.05-4.25 76.05-10.9Q75.1-10.6 73.65-10.15 72.2-9.7 71.5-9.45L71.5-9.45Q70.2-8.95 69.35-8 68.5-7.05 68.5-5.65L68.5-5.65Q68.5-4.3 69.45-3.28 70.4-2.25 71.8-2.25ZM98.44-21.35L98.44-21.35Q99.39-21.35 100.24-20.93 101.09-20.5 101.44-19.9L101.44-19.9Q101.54-19.7 101.59-19.35 101.64-19 101.64-18.6L101.64-18.6Q101.64-17.25 101.02-16.65 100.39-16.05 99.99-16.05L99.99-16.05Q99.49-16.05 99.04-16.4 98.59-16.75 98.19-17L98.19-17Q97.84-17.25 97.47-17.43 97.09-17.6 96.39-17.6L96.39-17.6Q95.34-17.6 94.47-16.73 93.59-15.85 93.04-14.8 92.49-13.75 92.49-13.2L92.49-13.2 92.49-5.65Q92.49-4.55 92.52-3.6 92.54-2.65 92.74-2.05L92.74-2.05Q92.84-1.8 93.74-1.6 94.64-1.4 95.64-1.33 96.64-1.25 96.94-1.25L96.94-1.25Q97.09-1.05 97.12-0.55 97.14-0.05 96.94 0.15L96.94 0.15Q95.44 0.05 93.89-0.03 92.34-0.1 90.89-0.1L90.89-0.1Q89.49-0.1 88.19-0.03 86.89 0.05 85.39 0.15L85.39 0.15Q85.19-0.05 85.22-0.55 85.24-1.05 85.39-1.25L85.39-1.25Q85.69-1.25 86.42-1.33 87.14-1.4 87.79-1.6 88.44-1.8 88.49-2.05L88.49-2.05Q88.69-2.65 88.72-3.6 88.74-4.55 88.74-5.65L88.74-5.65 88.74-14.75Q88.74-15.25 88.72-16.05 88.69-16.85 88.49-17.3L88.49-17.3Q88.34-17.75 87.64-17.93 86.94-18.1 86.24-18.13 85.54-18.15 85.34-18.15L85.34-18.15Q85.29-18.25 85.24-18.75 85.19-19.25 85.34-19.45L85.34-19.45Q87.24-19.7 89.04-20.2 90.84-20.7 92.29-21.5L92.29-21.5Q92.49-21.5 92.67-21.2 92.84-20.9 92.84-20.7L92.84-20.7Q92.84-20.55 92.74-19.55 92.64-18.55 92.57-17.53 92.49-16.5 92.49-16.2L92.49-16.2Q92.49-16.05 92.57-16.05 92.64-16.05 92.69-16.1L92.69-16.1Q93.19-17.15 94.12-18.38 95.04-19.6 96.19-20.48 97.34-21.35 98.44-21.35ZM110.14-27.5L110.14-21.1 116.44-21.1Q116.69-21.1 116.69-20.55L116.69-20.55Q116.69-19.8 115.99-19.1L115.99-19.1 110.14-19.1 110.14-6.3Q110.14-2.3 113.39-2.3L113.39-2.3Q114.49-2.3 115.39-2.75 116.29-3.2 116.54-3.4L116.54-3.4Q116.69-3.35 116.69-3.1L116.69-3.1Q116.69-2.55 116.49-2.35L116.49-2.35Q116.14-1.95 115.42-1.3 114.69-0.65 113.69-0.15 112.69 0.35 111.49 0.35L111.49 0.35Q110.24 0.35 109.07-0.1 107.89-0.55 107.14-1.7 106.39-2.85 106.39-4.95L106.39-4.95 106.39-19.1 103.54-19.1Q103.44-19.1 103.39-19.28 103.34-19.45 103.34-19.55L103.34-19.55Q103.34-19.65 103.64-20.03 103.94-20.4 104.27-20.75 104.59-21.1 104.59-21.1L104.59-21.1 106.39-21.1 106.39-24.15Q106.89-24.7 107.57-25.43 108.24-26.15 108.79-26.78 109.34-27.4 109.39-27.45L109.39-27.45Q109.59-27.65 109.87-27.65 110.14-27.65 110.14-27.5L110.14-27.5ZM150.94-32.55L150.94-32.55Q153.34-32.55 155.96-32.35 158.59-32.15 161.29-31.55L161.29-31.55Q161.29-31.55 161.46-30.53 161.64-29.5 161.84-28.13 162.04-26.75 162.21-25.63 162.39-24.5 162.39-24.3L162.39-24.3Q162.44-24.1 162.09-23.9 161.74-23.7 161.34-23.7L161.34-23.7Q160.99-23.7 160.74-23.85L160.74-23.85Q160.64-24.4 160.26-25.55 159.89-26.7 158.91-27.95 157.94-29.2 156.09-30.08 154.24-30.95 151.19-30.95L151.19-30.95Q148.49-30.95 146.29-29.73 144.09-28.5 142.51-26.43 140.94-24.35 140.11-21.83 139.29-19.3 139.29-16.75L139.29-16.75Q139.29-13.9 140.06-11.15 140.84-8.4 142.41-6.18 143.99-3.95 146.36-2.63 148.74-1.3 151.94-1.3L151.94-1.3Q154.19-1.3 155.76-2 157.34-2.7 158.39-3.65L158.39-3.65Q159.84-4.95 160.49-6.55 161.14-8.15 161.39-9.35L161.39-9.35Q162.24-9.45 162.94-8.95L162.94-8.95Q162.94-8.6 162.76-7.55 162.59-6.5 162.34-5.28 162.09-4.05 161.79-3.1 161.49-2.15 161.24-1.9L161.24-1.9Q159.24-0.8 156.69-0.25 154.14 0.3 150.74 0.3L150.74 0.3Q147.14 0.3 144.14-0.98 141.14-2.25 138.96-4.48 136.79-6.7 135.61-9.58 134.44-12.45 134.44-15.7L134.44-15.7Q134.44-19.15 135.66-22.18 136.89-25.2 139.09-27.55 141.29-29.9 144.31-31.23 147.34-32.55 150.94-32.55ZM168.88-28.95L168.88-28.95Q168.88-29.95 169.61-30.68 170.33-31.4 171.33-31.4L171.33-31.4Q172.33-31.4 173.06-30.68 173.78-29.95 173.78-28.95L173.78-28.95Q173.78-27.95 173.06-27.23 172.33-26.5 171.33-26.5L171.33-26.5Q170.33-26.5 169.61-27.23 168.88-27.95 168.88-28.95ZM173.58-17.5L173.58-5.65Q173.58-4.55 173.61-3.6 173.63-2.65 173.83-2.05L173.83-2.05Q173.93-1.8 174.56-1.6 175.18-1.4 175.88-1.33 176.58-1.25 176.88-1.25L176.88-1.25Q177.03-1.05 177.06-0.55 177.08-0.05 176.88 0.15L176.88 0.15Q175.38 0.05 174.26-0.03 173.13-0.1 171.68-0.1L171.68-0.1Q170.28-0.1 169.13-0.03 167.98 0.05 166.48 0.15L166.48 0.15Q166.28-0.05 166.31-0.55 166.33-1.05 166.48-1.25L166.48-1.25Q166.78-1.25 167.51-1.33 168.23-1.4 168.88-1.6 169.53-1.8 169.58-2.05L169.58-2.05Q169.78-2.65 169.81-3.6 169.83-4.55 169.83-5.65L169.83-5.65 169.83-14.75Q169.83-15.25 169.81-16.05 169.78-16.85 169.58-17.3L169.58-17.3Q169.43-17.75 168.73-17.93 168.03-18.1 167.33-18.13 166.63-18.15 166.43-18.15L166.43-18.15Q166.38-18.25 166.33-18.75 166.28-19.25 166.43-19.45L166.43-19.45Q168.33-19.7 170.13-20.2 171.93-20.7 173.38-21.5L173.38-21.5Q173.58-21.5 173.76-21.2 173.93-20.9 173.93-20.7L173.93-20.7Q173.93-20.55 173.83-19.85 173.73-19.15 173.66-18.45 173.58-17.75 173.58-17.5L173.58-17.5ZM185.68-27.5L185.68-21.1 191.98-21.1Q192.23-21.1 192.23-20.55L192.23-20.55Q192.23-19.8 191.53-19.1L191.53-19.1 185.68-19.1 185.68-6.3Q185.68-2.3 188.93-2.3L188.93-2.3Q190.03-2.3 190.93-2.75 191.83-3.2 192.08-3.4L192.08-3.4Q192.23-3.35 192.23-3.1L192.23-3.1Q192.23-2.55 192.03-2.35L192.03-2.35Q191.68-1.95 190.96-1.3 190.23-0.65 189.23-0.15 188.23 0.35 187.03 0.35L187.03 0.35Q185.78 0.35 184.61-0.1 183.43-0.55 182.68-1.7 181.93-2.85 181.93-4.95L181.93-4.95 181.93-19.1 179.08-19.1Q178.98-19.1 178.93-19.28 178.88-19.45 178.88-19.55L178.88-19.55Q178.88-19.65 179.18-20.03 179.48-20.4 179.81-20.75 180.13-21.1 180.13-21.1L180.13-21.1 181.93-21.1 181.93-24.15Q182.43-24.7 183.11-25.43 183.78-26.15 184.33-26.78 184.88-27.4 184.93-27.45L184.93-27.45Q185.13-27.65 185.41-27.65 185.68-27.65 185.68-27.5L185.68-27.5ZM197.98-20.75L197.98-20.75Q199.38-20.75 200.8-20.85 202.23-20.95 202.88-21L202.88-21Q202.98-20.8 202.93-20.2 202.88-19.6 202.68-19.6L202.68-19.6Q202.53-19.6 201.93-19.55 201.33-19.5 200.8-19.33 200.28-19.15 200.28-18.75L200.28-18.75Q200.28-18.65 200.33-18.55L200.33-18.55 205.53-5.35Q205.53-5.35 205.93-6.43 206.33-7.5 206.98-9.18 207.63-10.85 208.38-12.8 209.13-14.75 209.83-16.45L209.83-16.45Q210.03-16.9 210.08-17.32 210.13-17.75 210.13-18L210.13-18Q210.13-18.75 209.35-19.18 208.58-19.6 207.33-19.6L207.33-19.6Q207.13-19.6 207.13-20.2 207.13-20.8 207.33-21L207.33-21Q207.88-20.95 209.05-20.85 210.23-20.75 211.73-20.75L211.73-20.75Q213.13-20.75 214.1-20.85 215.08-20.95 215.83-21L215.83-21Q215.98-20.8 215.9-20.2 215.83-19.6 215.68-19.6L215.68-19.6Q215.48-19.6 214.85-19.45 214.23-19.3 213.55-18.95 212.88-18.6 212.58-17.9L212.58-17.9Q211.48-15.3 210.6-13.2 209.73-11.1 208.9-9.13 208.08-7.15 207.2-5.03 206.33-2.9 205.28-0.3L205.28-0.3Q204.38 1.95 203.53 4.2 202.68 6.45 201.38 8.4L201.38 8.4Q200.58 9.65 199.45 10.4 198.33 11.15 197.13 11.15L197.13 11.15Q196.43 11.15 195.73 10.75 195.03 10.35 195.03 9.05L195.03 9.05Q195.03 8.6 195.2 8.2 195.38 7.8 195.58 7.6L195.58 7.6Q196.73 7.6 197.6 7.48 198.48 7.35 199.3 6.75 200.13 6.15 201.13 4.85L201.13 4.85Q201.53 4.3 202.03 3.23 202.53 2.15 202.95 1.15 203.38 0.15 203.43-0.1L203.43-0.1Q202.08-3.6 200.88-6.63 199.68-9.65 198.45-12.58 197.23-15.5 195.78-18.6L195.78-18.6Q195.43-19.35 194.53-19.48 193.63-19.6 193.18-19.6L193.18-19.6Q193.08-19.6 193.08-19.6L193.08-19.6Q193.03-19.6 193.03-20.28 193.03-20.95 193.08-21L193.08-21Q193.78-20.95 195.13-20.85 196.48-20.75 197.98-20.75ZM237.72-32.1L237.72-32.1Q239.17-32.1 240.55-32.18 241.92-32.25 243.42-32.3L243.42-32.3Q243.62-32.1 243.6-31.6 243.57-31.1 243.42-30.9L243.42-30.9Q243.12-30.9 242.35-30.83 241.57-30.75 240.87-30.6 240.17-30.45 240.07-30.15L240.07-30.15Q239.87-29.55 239.85-28.58 239.82-27.6 239.82-26.5L239.82-26.5 239.82-14.45Q239.82-11.4 240.45-9.15 241.07-6.9 242.22-5.45L242.22-5.45Q244.52-2.65 248.92-2.65L248.92-2.65Q251.47-2.65 253.57-3.6 255.67-4.55 257-6.88 258.32-9.2 258.37-13.4L258.37-13.4 258.37-26.6Q258.37-27.9 258.32-28.65 258.27-29.4 257.87-30L257.87-30Q257.72-30.25 257.02-30.48 256.32-30.7 255.55-30.83 254.77-30.95 254.37-30.95L254.37-30.95Q254.17-31.2 254.2-31.68 254.22-32.15 254.27-32.35L254.27-32.35Q255.72-32.3 256.9-32.23 258.07-32.15 259.67-32.15L259.67-32.15Q260.82-32.15 261.55-32.18 262.27-32.2 263.05-32.25 263.82-32.3 264.92-32.35L264.92-32.35Q265.02-32.15 265.07-31.75 265.12-31.35 264.92-30.95L264.92-30.95Q264.62-30.95 263.77-30.85 262.92-30.75 262.12-30.53 261.32-30.3 261.12-30L261.12-30Q260.77-29.45 260.7-28.75 260.62-28.05 260.62-26.65L260.62-26.65 260.62-13.5Q260.62-8.65 259.02-5.63 257.42-2.6 254.55-1.2 251.67 0.2 247.87 0.2L247.87 0.2Q245.27 0.2 243.02-0.65 240.77-1.5 239.17-3.05L239.17-3.05Q237.47-4.65 236.52-7 235.57-9.35 235.57-12.25L235.57-12.25 235.57-26.5Q235.57-27.6 235.55-28.58 235.52-29.55 235.32-30.15L235.32-30.15Q235.27-30.45 234.55-30.6 233.82-30.75 233.05-30.83 232.27-30.9 231.97-30.9L231.97-30.9Q231.82-31.1 231.8-31.6 231.77-32.1 231.97-32.3L231.97-32.3Q233.47-32.25 234.9-32.18 236.32-32.1 237.72-32.1ZM272.82-32.25L272.82-32.25Q273.92-32.25 274.97-32.25 276.02-32.25 276.52-32.3L276.52-32.3Q277.27-31.15 278.92-29.05 280.57-26.95 282.77-24.28 284.97-21.6 287.32-18.75 289.67-15.9 291.87-13.13 294.07-10.35 295.67-8.1L295.67-8.1 295.67-26.6Q295.67-27.9 295.62-28.65 295.57-29.4 295.17-30L295.17-30Q295.02-30.25 294.27-30.48 293.52-30.7 292.7-30.83 291.87-30.95 291.47-30.95L291.47-30.95Q291.27-31.2 291.3-31.68 291.32-32.15 291.37-32.35L291.37-32.35Q292.82-32.3 294.1-32.23 295.37-32.15 296.97-32.15L296.97-32.15Q298.12-32.15 298.85-32.18 299.57-32.2 300.35-32.25 301.12-32.3 302.22-32.35L302.22-32.35Q302.32-32.15 302.37-31.75 302.42-31.35 302.22-30.95L302.22-30.95Q301.92-30.95 301.05-30.85 300.17-30.75 299.37-30.53 298.57-30.3 298.37-30L298.37-30Q298.02-29.45 297.97-28.75 297.92-28.05 297.92-26.65L297.92-26.65 297.92-6.8Q297.92-5.4 297.92-4.35 297.92-3.3 297.95-2.33 297.97-1.35 298.02-0.05L298.02-0.05Q297.97 0.15 297.72 0.2 297.47 0.25 297.37 0.25L297.37 0.25Q297.17 0.25 296.7 0 296.22-0.25 295.67-0.9L295.67-0.9 274.37-27.8 274.37-5.6Q274.37-4.3 274.45-3.58 274.52-2.85 274.87-2.25L274.87-2.25Q275.02-2 275.75-1.78 276.47-1.55 277.3-1.4 278.12-1.25 278.52-1.25L278.52-1.25Q278.72-1 278.72-0.55 278.72-0.1 278.62 0.15L278.62 0.15Q277.17 0.05 275.92-0.03 274.67-0.1 273.07-0.1L273.07-0.1Q271.97-0.1 271.2-0.05 270.42 0 269.7 0.05 268.97 0.1 267.82 0.15L267.82 0.15Q267.72-0.05 267.67-0.45 267.62-0.85 267.82-1.25L267.82-1.25Q268.12-1.25 268.97-1.38 269.82-1.5 270.65-1.73 271.47-1.95 271.62-2.25L271.62-2.25Q271.97-2.8 272.05-3.48 272.12-4.15 272.12-5.55L272.12-5.55 272.12-26.75Q272.12-28.15 272.05-28.85 271.97-29.55 271.62-30.1L271.62-30.1Q271.47-30.4 270.65-30.63 269.82-30.85 268.97-30.95 268.12-31.05 267.82-31.05L267.82-31.05Q267.62-31.45 267.67-31.85 267.72-32.25 267.82-32.45L267.82-32.45Q269.52-32.4 270.57-32.33 271.62-32.25 272.82-32.25ZM307.82-6.8L307.82-6.8Q307.82-6.8 308.29-8.03 308.77-9.25 309.57-11.35 310.37-13.45 311.39-16.03 312.42-18.6 313.47-21.33 314.52-24.05 315.49-26.55 316.47-29.05 317.22-30.95L317.22-30.95Q317.42-31.35 318.09-31.85 318.77-32.35 319.12-32.35L319.12-32.35Q319.22-32.35 319.24-32.33 319.27-32.3 319.37-32.25L319.37-32.25 329.32-6.15Q330.42-3.25 330.57-2.95L330.57-2.95Q330.82-2.4 331.54-2 332.27-1.6 332.99-1.43 333.72-1.25 333.92-1.25L333.92-1.25Q334.12-1 334.07-0.48 334.02 0.05 333.97 0.15L333.97 0.15Q332.52 0.05 331.37-0.03 330.22-0.1 328.62-0.1L328.62-0.1Q326.92-0.1 325.79-0.03 324.67 0.05 322.97 0.15L322.97 0.15Q322.77-0.05 322.79-0.55 322.82-1.05 323.02-1.25L323.02-1.25Q323.47-1.25 324.42-1.43 325.37-1.6 325.72-1.9L325.72-1.9Q325.92-2.1 325.92-2.6L325.92-2.6Q325.92-3.05 325.59-4.13 325.27-5.2 324.77-6.55 324.27-7.9 323.77-9.18 323.27-10.45 322.94-11.28 322.62-12.1 322.62-12.1L322.62-12.1Q322.62-12.1 322.52-12.2 322.42-12.3 322.32-12.3L322.32-12.3Q321.57-12.35 320.47-12.35 319.37-12.35 318.42-12.35L318.42-12.35Q318.17-12.35 317.92-12.35 317.67-12.35 317.47-12.35L317.47-12.35Q315.97-12.35 314.92-12.33 313.87-12.3 312.22-12.2L312.22-12.2Q312.17-12.2 312.07-12.13 311.97-12.05 311.97-12.05L311.97-12.05Q311.97-12.05 311.59-11.05 311.22-10.05 310.69-8.68 310.17-7.3 309.77-6.1L309.77-6.1Q309.32-4.85 309.19-4 309.07-3.15 309.07-2.65L309.07-2.65Q309.07-2.1 309.84-1.78 310.62-1.45 311.44-1.35 312.27-1.25 312.47-1.25L312.47-1.25Q312.57-1.15 312.62-0.63 312.67-0.1 312.57 0.15L312.57 0.15Q311.62 0.1 310.94 0.05 310.27 0 309.59-0.05 308.92-0.1 307.82-0.1L307.82-0.1Q306.72-0.1 305.97-0.05 305.22 0 304.47 0.05 303.72 0.1 302.57 0.15L302.57 0.15Q302.47 0.05 302.47-0.48 302.47-1 302.57-1.25L302.57-1.25Q303.02-1.25 304.09-1.48 305.17-1.7 305.52-2.2L305.52-2.2Q306.27-3.15 306.79-4.33 307.32-5.5 307.82-6.8ZM321.67-14.65L317.37-26.45 312.92-14.55Q312.92-14.55 312.94-14.45 312.97-14.35 313.02-14.35L313.02-14.35Q313.97-14.3 315.29-14.28 316.62-14.25 317.42-14.25L317.42-14.25Q318.57-14.25 319.49-14.3 320.42-14.35 321.52-14.4L321.52-14.4Q321.62-14.4 321.64-14.53 321.67-14.65 321.67-14.65L321.67-14.65ZM343.87-26.5L343.87-5.65Q343.87-5.55 343.87-5.35L343.87-5.35Q343.87-4.9 343.87-4.17 343.87-3.45 343.92-2.85 343.97-2.25 344.12-2.15L344.12-2.15Q344.62-1.8 345.34-1.73 346.07-1.65 347.62-1.65L347.62-1.65 350.37-1.65Q351.77-1.65 353.44-1.98 355.12-2.3 356.12-3L356.12-3Q357.02-3.65 357.79-4.8 358.57-5.95 359.17-7.9L359.17-7.9Q359.27-8.2 359.87-8.2L359.87-8.2Q360.77-8.2 361.07-7.9L361.07-7.9Q360.37-5.9 359.54-3.65 358.72-1.4 358.47 0.2L358.47 0.2Q354.52 0.2 350.62 0.1 346.72 0 341.82 0L341.82 0Q340.12 0 338.77 0.08 337.42 0.15 335.97 0.15L335.97 0.15Q335.77-0.05 335.79-0.55 335.82-1.05 335.97-1.25L335.97-1.25Q336.27-1.25 337.07-1.33 337.87-1.4 338.59-1.6 339.32-1.8 339.37-2.05L339.37-2.05Q339.57-2.65 339.59-3.6 339.62-4.55 339.62-5.65L339.62-5.65 339.62-26.5Q339.62-27.6 339.59-28.58 339.57-29.55 339.37-30.15L339.37-30.15Q339.32-30.45 338.59-30.6 337.87-30.75 337.07-30.83 336.27-30.9 335.97-30.9L335.97-30.9Q335.82-31.1 335.79-31.6 335.77-32.1 335.97-32.3L335.97-32.3Q337.47-32.25 338.92-32.18 340.37-32.1 341.77-32.1L341.77-32.1Q343.22-32.1 344.59-32.18 345.97-32.25 347.47-32.3L347.47-32.3Q347.67-32.1 347.64-31.6 347.62-31.1 347.47-30.9L347.47-30.9Q347.17-30.9 346.37-30.83 345.57-30.75 344.87-30.6 344.17-30.45 344.07-30.15L344.07-30.15Q343.92-29.65 343.89-28.85 343.87-28.05 343.87-27.1L343.87-27.1Q343.87-26.95 343.87-26.8 343.87-26.65 343.87-26.5L343.87-26.5Z" opacity="1" transform="matrix(1,0,0,1,0,0)" fill="#6b7280" class="wordmark-text-0" data-fill-palette-color="primary" id="text-0"></path></svg></g></svg></g></svg></g></svg></g><g transform="matrix(1,0,0,1,129.26077662670752,0)"><svg viewBox="0 0 138.97604674658487 66.59268906607193" height="66.59268906607193" width="138.97604674658487"><g><svg xmlns="http://www.w3.org/2000/svg" xmlns:xlink="http://www.w3.org/1999/xlink" version="1.1" x="0" y="0" viewBox="2 26 96 46" enable-background="new 0 0 100 100" xml:space="preserve" height="66.59268906607193" width="138.97604674658487" class="icon-icon-0" data-fill-palette-color="accent" id="icon-0"><g fill="#97978d" data-fill-palette-color="accent"><path d="M88.896 45.39L79 55.339V34H64V50H59V26H30V50.977L29.985 50.779 17.678 35.704 2 51.373V72H13V61H19V72H98V54.546zM40 48H34V42H40zM40 36H34V30H40zM55 48H49V42H55zM55 36H49V30H55zM86 66H84V59H86zM90 66H88V59H90z" fill="#97978d" data-fill-palette-color="accent"></path></g></svg></g></svg></g><g></g></svg></g><defs></defs></svg><rect width="395.52" height="151.15228442631656" fill="none" stroke="none" visibility="hidden"></rect></g></svg></g></svg>