<svg xmlns="http://www.w3.org/2000/svg" version="1.1" xmlns:xlink="http://www.w3.org/1999/xlink" xmlns:svgjs="http://svgjs.dev/svgjs" width="1500" height="1500" viewBox="0 0 1500 1500"><rect width="1500" height="1500" fill="#000000"></rect><g transform="matrix(0.6666666666666666,0,0,0.6666666666666666,248.7765957446809,464.36263959501565)"><svg viewBox="0 0 376 214" data-background-color="#ffffff" preserveAspectRatio="xMidYMid meet" height="853" width="1500" xmlns="http://www.w3.org/2000/svg" xmlns:xlink="http://www.w3.org/1999/xlink"><g id="tight-bounds" transform="matrix(1,0,0,1,0.46023999999999887,0.4907299999999992)"><svg viewBox="0 0 375.07953 213.01854" height="213.01854" width="375.07953"><g><svg></svg></g><g><svg viewBox="0 0 375.07953 213.01854" height="213.01854" width="375.07953"><g transform="matrix(1,0,0,1,-10.22024,-18.05865)"><path d="M10.22 229.141v-211.082h375.08v211.082h-19.668l0-6.461h13.206v-198.16h-362.156v198.16h116.635l0 6.461z" fill="#ffffff" fill-rule="nonzero" stroke="none" stroke-width="1" stroke-linecap="butt" stroke-linejoin="miter" stroke-miterlimit="10" stroke-dasharray="" stroke-dashoffset="0" font-family="none" font-weight="none" font-size="none" text-anchor="none" style="mix-blend-mode: normal" data-fill-palette-color="tertiary"></path><g><path d="M155.39 231.017v0c-0.491 0-0.942-0.06-1.354-0.179-0.411-0.119-0.737-0.352-0.976-0.697-0.239-0.345-0.358-0.863-0.358-1.553v0-9.517h0.318v9.458c0 0.611 0.113 1.071 0.339 1.381 0.226 0.313 0.522 0.523 0.888 0.63 0.364 0.106 0.745 0.159 1.143 0.159v0c0.411 0 0.814-0.053 1.206-0.159 0.39-0.106 0.718-0.316 0.984-0.63 0.265-0.311 0.398-0.771 0.398-1.381v0-9.458h0.319v9.517c0 0.69-0.135 1.208-0.407 1.553-0.273 0.345-0.632 0.577-1.075 0.697-0.446 0.119-0.921 0.179-1.425 0.179zM161.442 230.838h-0.318v-9.855h0.279l0.039 1.035c0.146-0.305 0.389-0.581 0.729-0.828 0.337-0.244 0.818-0.366 1.442-0.366v0c0.557 0 0.999 0.076 1.326 0.227 0.324 0.154 0.559 0.36 0.704 0.617 0.146 0.26 0.239 0.543 0.279 0.848 0.04 0.305 0.06 0.611 0.06 0.916v0 7.406h-0.319v-7.227c0-0.398-0.033-0.787-0.099-1.167-0.066-0.377-0.242-0.689-0.526-0.936-0.287-0.244-0.762-0.366-1.425-0.366v0c-0.73 0-1.274 0.199-1.633 0.597-0.358 0.398-0.538 0.883-0.538 1.454v0zM168.869 230.838h-0.319v-9.855h0.319zM168.71 219.569v0c-0.186 0-0.279-0.093-0.279-0.279v0c0-0.186 0.093-0.279 0.279-0.278v0c0.186 0 0.279 0.093 0.278 0.278v0c0 0.186-0.093 0.279-0.278 0.279zM173.349 230.838h-0.359l-2.389-9.855h0.319l2.249 9.318 2.27-9.318h0.319zM179.6 230.978v0c-0.571 0-1.018-0.077-1.342-0.231-0.327-0.151-0.563-0.353-0.708-0.606-0.146-0.252-0.239-0.535-0.279-0.848-0.04-0.311-0.06-0.619-0.06-0.924v0-4.937c0-0.411 0.046-0.816 0.139-1.215 0.093-0.398 0.309-0.73 0.65-0.995 0.337-0.265 0.871-0.398 1.6-0.398v0c0.743 0 1.281 0.126 1.613 0.378 0.332 0.252 0.542 0.577 0.629 0.975 0.085 0.398 0.127 0.816 0.128 1.255v0 2.17h-4.44v2.708c0 0.385 0.037 0.759 0.111 1.123 0.072 0.366 0.254 0.662 0.546 0.888 0.292 0.226 0.763 0.338 1.413 0.338v0c0.65 0 1.119-0.113 1.406-0.338 0.284-0.226 0.463-0.518 0.538-0.876 0.072-0.358 0.108-0.737 0.107-1.135v0-0.797h0.319v0.856c0 0.411-0.04 0.816-0.12 1.215-0.08 0.398-0.285 0.73-0.617 0.995-0.332 0.265-0.876 0.398-1.633 0.399zM177.53 223.611v1.672h4.121v-1.672c0-0.465-0.033-0.883-0.099-1.254-0.066-0.372-0.242-0.668-0.526-0.888-0.287-0.218-0.762-0.327-1.426-0.327v0c-0.584 0-1.025 0.102-1.322 0.307-0.3 0.207-0.499 0.492-0.597 0.856-0.101 0.366-0.151 0.802-0.151 1.306zM184.777 230.838h-0.319v-9.855h0.279l0.04 0.995c0.146-0.305 0.389-0.575 0.729-0.808 0.337-0.231 0.818-0.346 1.441-0.346v0c0.279 0 0.524 0.02 0.737 0.059v0 0.319c-0.212-0.04-0.458-0.06-0.737-0.06v0c-0.73 0-1.274 0.192-1.633 0.577-0.358 0.385-0.538 0.843-0.537 1.374v0zM190.849 230.958v0c-0.69 0-1.254-0.166-1.692-0.498-0.438-0.332-0.657-0.863-0.657-1.593v0-1.334h0.319v1.334c0 0.584 0.19 1.025 0.569 1.322 0.377 0.3 0.864 0.45 1.461 0.45v0c0.624 0 1.126-0.133 1.506-0.398 0.377-0.265 0.565-0.703 0.565-1.314v0-0.757c0-0.504-0.106-0.9-0.318-1.186-0.212-0.284-0.48-0.516-0.805-0.697-0.327-0.178-0.676-0.346-1.047-0.506v0c-0.411-0.186-0.79-0.372-1.135-0.557-0.345-0.186-0.62-0.415-0.824-0.689-0.207-0.271-0.311-0.625-0.311-1.063v0-0.677c0-0.557 0.212-1.022 0.637-1.394 0.425-0.372 1.015-0.557 1.772-0.558v0c0.69 0 1.258 0.155 1.705 0.466 0.443 0.313 0.665 0.828 0.665 1.545v0 1.295h-0.319v-1.175c0-0.637-0.175-1.099-0.526-1.386-0.353-0.284-0.861-0.426-1.525-0.426v0c-0.664 0-1.177 0.166-1.541 0.498-0.366 0.332-0.55 0.77-0.549 1.314v0 0.358c0 0.438 0.113 0.79 0.338 1.055 0.226 0.265 0.498 0.48 0.817 0.646 0.319 0.167 0.617 0.317 0.895 0.449v0c0.398 0.173 0.78 0.361 1.147 0.566 0.364 0.207 0.662 0.473 0.896 0.796 0.231 0.327 0.346 0.769 0.347 1.326v0 0.757c0 0.518-0.113 0.922-0.339 1.214-0.226 0.292-0.518 0.5-0.876 0.626-0.358 0.127-0.75 0.191-1.175 0.191zM195.747 230.838h-0.318v-9.855h0.318zM195.588 219.569v0c-0.186 0-0.279-0.093-0.279-0.279v0c0-0.186 0.093-0.279 0.279-0.278v0c0.186 0 0.279 0.093 0.279 0.278v0c0 0.186-0.093 0.279-0.279 0.279zM200.645 230.978v0c-0.743 0-1.284-0.133-1.62-0.399-0.34-0.265-0.55-0.597-0.63-0.995-0.08-0.398-0.119-0.803-0.119-1.215v0-4.937c0-0.305 0.02-0.611 0.06-0.916 0.04-0.305 0.133-0.588 0.278-0.848 0.146-0.258 0.382-0.463 0.709-0.617 0.324-0.151 0.765-0.227 1.322-0.227v0c0.465 0 0.836 0.049 1.115 0.147 0.279 0.101 0.495 0.211 0.649 0.33 0.151 0.119 0.254 0.206 0.307 0.259v0-3.265h0.318v12.543h-0.258l-0.04-0.995c-0.093 0.279-0.325 0.538-0.697 0.776-0.372 0.239-0.836 0.358-1.394 0.359zM200.645 230.659v0c0.557 0 0.986-0.11 1.286-0.33 0.297-0.218 0.503-0.506 0.618-0.865 0.112-0.358 0.167-0.743 0.167-1.154v0-6.172c-0.04-0.093-0.115-0.216-0.227-0.371-0.114-0.151-0.313-0.293-0.597-0.426-0.287-0.133-0.702-0.199-1.247-0.199v0c-0.518 0-0.916 0.073-1.194 0.219-0.279 0.146-0.478 0.334-0.598 0.566-0.119 0.234-0.192 0.486-0.219 0.756-0.027 0.273-0.04 0.543-0.04 0.808v0 4.819c0 0.265 0.013 0.534 0.04 0.804 0.027 0.273 0.1 0.526 0.219 0.757 0.119 0.234 0.319 0.423 0.598 0.569 0.279 0.146 0.677 0.219 1.194 0.219zM207.574 230.918v0c-0.305 0-0.62-0.053-0.944-0.159-0.327-0.106-0.603-0.323-0.828-0.649-0.226-0.324-0.338-0.824-0.339-1.502v0-0.677c0-0.425 0.097-0.796 0.291-1.115 0.191-0.319 0.423-0.588 0.697-0.808 0.271-0.218 0.536-0.397 0.796-0.537 0.258-0.138 0.446-0.24 0.566-0.307v0c0.531-0.292 0.946-0.548 1.246-0.769 0.297-0.218 0.512-0.443 0.645-0.677 0.133-0.231 0.199-0.512 0.199-0.844v0-0.278c0-0.451-0.096-0.776-0.286-0.976-0.194-0.199-0.437-0.325-0.729-0.378-0.292-0.053-0.591-0.08-0.896-0.08v0c-0.584 0-1.018 0.1-1.302 0.299-0.287 0.199-0.473 0.465-0.558 0.796-0.088 0.332-0.131 0.703-0.131 1.115v0 0.816h-0.319v-0.856c0-0.77 0.153-1.378 0.458-1.824 0.305-0.443 0.922-0.665 1.852-0.665v0c0.717 0 1.232 0.093 1.545 0.279 0.311 0.186 0.503 0.427 0.577 0.725 0.072 0.3 0.108 0.629 0.108 0.987v0 8.004h-0.299v-1.453c-0.159 0.465-0.441 0.836-0.844 1.115-0.406 0.279-0.908 0.418-1.505 0.418zM207.634 230.599v0c0.584 0 1.039-0.126 1.365-0.378 0.324-0.252 0.556-0.597 0.697-1.035 0.138-0.438 0.207-0.929 0.207-1.474v0-3.663c-0.212 0.292-0.5 0.547-0.864 0.764-0.366 0.22-0.742 0.443-1.127 0.669v0c-0.332 0.186-0.66 0.381-0.983 0.586-0.327 0.207-0.599 0.47-0.817 0.788-0.22 0.319-0.331 0.73-0.33 1.235v0 0.517c0 0.624 0.1 1.075 0.299 1.354 0.199 0.279 0.445 0.454 0.736 0.526 0.292 0.074 0.564 0.112 0.817 0.111zM214.98 230.978v0c-0.743 0-1.284-0.133-1.62-0.399-0.34-0.265-0.55-0.597-0.629-0.995-0.08-0.398-0.119-0.803-0.12-1.215v0-4.937c0-0.305 0.02-0.611 0.06-0.916 0.04-0.305 0.133-0.588 0.279-0.848 0.146-0.258 0.382-0.463 0.708-0.617 0.324-0.151 0.765-0.227 1.322-0.227v0c0.465 0 0.836 0.049 1.115 0.147 0.279 0.101 0.495 0.211 0.649 0.33 0.151 0.119 0.254 0.206 0.307 0.259v0-3.265h0.319v12.543h-0.259l-0.04-0.995c-0.093 0.279-0.325 0.538-0.697 0.776-0.372 0.239-0.836 0.358-1.394 0.359zM214.98 230.659v0c0.557 0 0.986-0.11 1.287-0.33 0.297-0.218 0.503-0.506 0.617-0.865 0.112-0.358 0.167-0.743 0.167-1.154v0-6.172c-0.04-0.093-0.115-0.216-0.227-0.371-0.114-0.151-0.313-0.293-0.597-0.426-0.287-0.133-0.702-0.199-1.247-0.199v0c-0.518 0-0.916 0.073-1.194 0.219-0.279 0.146-0.478 0.334-0.598 0.566-0.119 0.234-0.192 0.486-0.219 0.756-0.027 0.273-0.04 0.543-0.039 0.808v0 4.819c0 0.265 0.013 0.534 0.039 0.804 0.027 0.273 0.1 0.526 0.219 0.757 0.119 0.234 0.319 0.423 0.598 0.569 0.279 0.146 0.677 0.219 1.194 0.219zM223.641 230.838h-0.318v-11.767h0.438l4.858 11.19v-11.19h0.318v11.767h-0.418l-4.878-11.249zM233.636 230.918v0c-0.305 0-0.62-0.053-0.944-0.159-0.327-0.106-0.603-0.323-0.828-0.649-0.226-0.324-0.338-0.824-0.338-1.502v0-0.677c0-0.425 0.097-0.796 0.29-1.115 0.191-0.319 0.423-0.588 0.697-0.808 0.271-0.218 0.536-0.397 0.797-0.537 0.258-0.138 0.446-0.24 0.565-0.307v0c0.531-0.292 0.946-0.548 1.246-0.769 0.297-0.218 0.512-0.443 0.645-0.677 0.133-0.231 0.199-0.512 0.2-0.844v0-0.278c0-0.451-0.096-0.776-0.287-0.976-0.194-0.199-0.437-0.325-0.729-0.378-0.292-0.053-0.591-0.08-0.896-0.08v0c-0.584 0-1.018 0.1-1.302 0.299-0.287 0.199-0.473 0.465-0.557 0.796-0.088 0.332-0.131 0.703-0.132 1.115v0 0.816h-0.318v-0.856c0-0.77 0.153-1.378 0.458-1.824 0.305-0.443 0.922-0.665 1.851-0.665v0c0.717 0 1.232 0.093 1.545 0.279 0.311 0.186 0.503 0.427 0.578 0.725 0.072 0.3 0.108 0.629 0.107 0.987v0 8.004h-0.299v-1.453c-0.159 0.465-0.441 0.836-0.844 1.115-0.406 0.279-0.908 0.418-1.505 0.418zM233.696 230.599v0c0.584 0 1.039-0.126 1.366-0.378 0.324-0.252 0.556-0.597 0.696-1.035 0.138-0.438 0.207-0.929 0.208-1.474v0-3.663c-0.212 0.292-0.5 0.547-0.865 0.764-0.366 0.22-0.742 0.443-1.126 0.669v0c-0.332 0.186-0.66 0.381-0.984 0.586-0.327 0.207-0.599 0.47-0.816 0.788-0.22 0.319-0.331 0.73-0.331 1.235v0 0.517c0 0.624 0.1 1.075 0.299 1.354 0.199 0.279 0.445 0.454 0.736 0.526 0.292 0.074 0.564 0.112 0.817 0.111zM241.062 230.978v0c-0.571 0-1.018-0.077-1.341-0.231-0.327-0.151-0.563-0.353-0.709-0.606-0.146-0.252-0.239-0.535-0.279-0.848-0.04-0.311-0.06-0.619-0.06-0.924v0-4.937c0-0.305 0.02-0.611 0.06-0.916 0.04-0.305 0.133-0.588 0.279-0.848 0.146-0.258 0.382-0.463 0.709-0.617 0.324-0.151 0.771-0.227 1.341-0.227v0c0.557 0 0.999 0.076 1.326 0.227 0.324 0.154 0.559 0.36 0.705 0.617 0.146 0.26 0.239 0.543 0.279 0.848 0.04 0.305 0.06 0.611 0.06 0.916v0 0.876h-0.319v-0.817c0-0.358-0.036-0.717-0.107-1.075-0.074-0.358-0.254-0.661-0.538-0.908-0.287-0.244-0.755-0.366-1.406-0.366v0c-0.65 0-1.122 0.122-1.413 0.366-0.292 0.247-0.474 0.55-0.546 0.908-0.074 0.358-0.112 0.717-0.111 1.075v0 4.819c0 0.345 0.037 0.7 0.111 1.063 0.072 0.366 0.254 0.672 0.546 0.916 0.292 0.247 0.763 0.37 1.413 0.37v0c0.65 0 1.119-0.123 1.406-0.37 0.284-0.244 0.463-0.55 0.538-0.916 0.072-0.364 0.108-0.718 0.107-1.063v0-0.797h0.319v0.856c0 0.411-0.04 0.816-0.12 1.215-0.08 0.398-0.285 0.73-0.617 0.995-0.332 0.265-0.876 0.398-1.633 0.399zM246.04 230.838h-0.319v-9.855h0.319zM245.881 219.569v0c-0.186 0-0.279-0.093-0.279-0.279v0c0-0.186 0.093-0.279 0.279-0.278v0c0.186 0 0.279 0.093 0.278 0.278v0c0 0.186-0.093 0.279-0.278 0.279zM250.958 230.978v0c-0.571 0-1.018-0.077-1.342-0.231-0.327-0.151-0.563-0.353-0.709-0.606-0.146-0.252-0.239-0.535-0.279-0.848-0.04-0.311-0.06-0.619-0.059-0.924v0-4.937c0-0.305 0.02-0.611 0.059-0.916 0.04-0.305 0.137-0.588 0.291-0.848 0.151-0.258 0.393-0.463 0.725-0.617 0.332-0.151 0.796-0.227 1.393-0.227v0c0.73 0 1.261 0.133 1.593 0.398 0.332 0.265 0.548 0.597 0.649 0.995 0.098 0.398 0.147 0.803 0.148 1.215v0 4.937c0 0.411-0.049 0.816-0.148 1.215-0.101 0.398-0.324 0.73-0.669 0.995-0.345 0.265-0.896 0.398-1.652 0.399zM250.958 230.659v0c0.69 0 1.185-0.123 1.485-0.37 0.297-0.244 0.483-0.55 0.558-0.916 0.072-0.364 0.108-0.718 0.107-1.063v0-4.819c0-0.358-0.036-0.717-0.107-1.075-0.074-0.358-0.254-0.661-0.538-0.908-0.287-0.244-0.762-0.366-1.426-0.366v0c-0.531 0-0.945 0.073-1.242 0.219-0.3 0.146-0.512 0.334-0.637 0.566-0.127 0.234-0.204 0.486-0.231 0.756-0.027 0.273-0.04 0.543-0.04 0.808v0 4.819c0 0.265 0.013 0.534 0.04 0.804 0.027 0.273 0.1 0.526 0.219 0.757 0.119 0.234 0.323 0.423 0.609 0.569 0.284 0.146 0.685 0.219 1.203 0.219zM256.274 230.838h-0.319v-9.855h0.279l0.04 1.035c0.146-0.305 0.389-0.581 0.728-0.828 0.337-0.244 0.818-0.366 1.442-0.366v0c0.557 0 0.999 0.076 1.326 0.227 0.324 0.154 0.559 0.36 0.705 0.617 0.146 0.26 0.239 0.543 0.278 0.848 0.04 0.305 0.06 0.611 0.06 0.916v0 7.406h-0.318v-7.227c0-0.398-0.033-0.787-0.1-1.167-0.066-0.377-0.242-0.689-0.526-0.936-0.287-0.244-0.762-0.366-1.425-0.366v0c-0.73 0-1.274 0.199-1.633 0.597-0.358 0.398-0.538 0.883-0.537 1.454v0zM265.213 230.918v0c-0.305 0-0.62-0.053-0.943-0.159-0.327-0.106-0.603-0.323-0.829-0.649-0.226-0.324-0.338-0.824-0.338-1.502v0-0.677c0-0.425 0.097-0.796 0.291-1.115 0.191-0.319 0.423-0.588 0.696-0.808 0.271-0.218 0.536-0.397 0.797-0.537 0.258-0.138 0.446-0.24 0.565-0.307v0c0.531-0.292 0.946-0.548 1.247-0.769 0.297-0.218 0.512-0.443 0.645-0.677 0.133-0.231 0.199-0.512 0.199-0.844v0-0.278c0-0.451-0.096-0.776-0.287-0.976-0.194-0.199-0.437-0.325-0.729-0.378-0.292-0.053-0.591-0.08-0.896-0.08v0c-0.584 0-1.019 0.1-1.306 0.299-0.284 0.199-0.469 0.465-0.553 0.796-0.088 0.332-0.131 0.703-0.132 1.115v0 0.816h-0.318v-0.856c0-0.77 0.153-1.378 0.458-1.824 0.305-0.443 0.922-0.665 1.851-0.665v0c0.717 0 1.232 0.093 1.545 0.279 0.311 0.186 0.503 0.427 0.578 0.725 0.072 0.3 0.108 0.629 0.107 0.987v0 8.004h-0.298v-1.453c-0.159 0.465-0.442 0.836-0.848 1.115-0.404 0.279-0.904 0.418-1.502 0.418zM265.273 230.599v0c0.584 0 1.038-0.126 1.362-0.378 0.327-0.252 0.559-0.597 0.697-1.035 0.141-0.438 0.211-0.929 0.211-1.474v0-3.663c-0.212 0.292-0.5 0.547-0.864 0.764-0.366 0.22-0.742 0.443-1.127 0.669v0c-0.332 0.186-0.66 0.381-0.984 0.586-0.327 0.207-0.6 0.47-0.82 0.788-0.218 0.319-0.327 0.73-0.327 1.235v0 0.517c0 0.624 0.1 1.075 0.299 1.354 0.199 0.279 0.445 0.454 0.737 0.526 0.292 0.074 0.564 0.112 0.816 0.111zM270.748 230.838h-0.318v-12.543h0.318zM278.732 230.978v0c-0.743 0-1.284-0.133-1.62-0.399-0.34-0.265-0.55-0.597-0.63-0.995-0.08-0.398-0.119-0.803-0.119-1.215v0-4.937c0-0.305 0.02-0.611 0.06-0.916 0.04-0.305 0.133-0.588 0.278-0.848 0.146-0.258 0.382-0.463 0.709-0.617 0.324-0.151 0.765-0.227 1.322-0.227v0c0.465 0 0.836 0.049 1.115 0.147 0.279 0.101 0.495 0.211 0.649 0.33 0.151 0.119 0.254 0.206 0.307 0.259v0-3.265h0.318v12.543h-0.258l-0.04-0.995c-0.093 0.279-0.325 0.538-0.697 0.776-0.372 0.239-0.836 0.358-1.394 0.359zM278.732 230.659v0c0.557 0 0.986-0.11 1.286-0.33 0.297-0.218 0.503-0.506 0.618-0.865 0.112-0.358 0.167-0.743 0.167-1.154v0-6.172c-0.04-0.093-0.117-0.216-0.231-0.371-0.112-0.151-0.311-0.293-0.597-0.426-0.284-0.133-0.698-0.199-1.243-0.199v0c-0.518 0-0.916 0.073-1.194 0.219-0.279 0.146-0.478 0.334-0.598 0.566-0.119 0.234-0.192 0.486-0.219 0.756-0.027 0.273-0.04 0.543-0.04 0.808v0 4.819c0 0.265 0.013 0.534 0.04 0.804 0.027 0.273 0.1 0.526 0.219 0.757 0.119 0.234 0.319 0.423 0.598 0.569 0.279 0.146 0.677 0.219 1.194 0.219zM286.039 230.978v0c-0.571 0-1.018-0.077-1.342-0.231-0.327-0.151-0.563-0.353-0.709-0.606-0.146-0.252-0.239-0.535-0.278-0.848-0.04-0.311-0.06-0.619-0.06-0.924v0-4.937c0-0.411 0.046-0.816 0.139-1.215 0.093-0.398 0.309-0.73 0.649-0.995 0.337-0.265 0.871-0.398 1.601-0.398v0c0.743 0 1.281 0.126 1.613 0.378 0.332 0.252 0.542 0.577 0.629 0.975 0.085 0.398 0.127 0.816 0.127 1.255v0 2.17h-4.439v2.708c0 0.385 0.037 0.759 0.111 1.123 0.072 0.366 0.254 0.662 0.546 0.888 0.292 0.226 0.763 0.338 1.413 0.338v0c0.65 0 1.119-0.113 1.406-0.338 0.284-0.226 0.463-0.518 0.537-0.876 0.072-0.358 0.108-0.737 0.108-1.135v0-0.797h0.318v0.856c0 0.411-0.04 0.816-0.119 1.215-0.08 0.398-0.285 0.73-0.617 0.995-0.332 0.265-0.876 0.398-1.633 0.399zM283.969 223.611v1.672h4.121v-1.672c0-0.465-0.033-0.883-0.1-1.254-0.066-0.372-0.242-0.668-0.525-0.888-0.287-0.218-0.762-0.327-1.426-0.327v0c-0.584 0-1.025 0.102-1.322 0.307-0.3 0.207-0.499 0.492-0.597 0.856-0.101 0.366-0.151 0.802-0.151 1.306zM296.651 231.077v0c-0.504 0-0.958-0.056-1.362-0.167-0.406-0.114-0.729-0.357-0.967-0.729-0.239-0.372-0.358-0.936-0.359-1.692v0-6.989c0-0.77 0.119-1.338 0.359-1.704 0.239-0.364 0.568-0.603 0.987-0.717 0.417-0.112 0.877-0.167 1.382-0.167v0c0.518 0 0.98 0.06 1.386 0.179 0.404 0.119 0.725 0.361 0.963 0.725 0.239 0.366 0.358 0.928 0.359 1.684v0 1.753h-0.319v-1.832c0-0.637-0.102-1.112-0.306-1.426-0.207-0.311-0.49-0.516-0.849-0.617-0.358-0.098-0.776-0.147-1.254-0.147v0c-0.491 0-0.916 0.056-1.274 0.167-0.358 0.114-0.633 0.333-0.824 0.657-0.194 0.327-0.291 0.822-0.291 1.485v0 6.989c0 0.637 0.11 1.115 0.33 1.433 0.218 0.319 0.51 0.531 0.876 0.637 0.364 0.106 0.758 0.159 1.183 0.16v0c0.465 0 0.88-0.053 1.246-0.16 0.364-0.106 0.649-0.319 0.857-0.637 0.204-0.319 0.307-0.796 0.306-1.433v0-1.454h0.319v1.414c0 0.77-0.119 1.337-0.359 1.7-0.239 0.366-0.564 0.607-0.975 0.721-0.411 0.112-0.883 0.167-1.414 0.167zM304.237 230.978v0c-0.571 0-1.018-0.077-1.342-0.231-0.327-0.151-0.563-0.353-0.709-0.606-0.146-0.252-0.239-0.535-0.279-0.848-0.04-0.311-0.06-0.619-0.059-0.924v0-4.937c0-0.305 0.02-0.611 0.059-0.916 0.04-0.305 0.137-0.588 0.291-0.848 0.151-0.258 0.393-0.463 0.725-0.617 0.332-0.151 0.796-0.227 1.394-0.227v0c0.73 0 1.261 0.133 1.592 0.398 0.332 0.265 0.547 0.597 0.645 0.995 0.101 0.398 0.151 0.803 0.152 1.215v0 4.937c0 0.411-0.05 0.816-0.152 1.215-0.098 0.398-0.32 0.73-0.665 0.995-0.345 0.265-0.896 0.398-1.652 0.399zM304.237 230.659v0c0.69 0 1.185-0.123 1.485-0.37 0.297-0.244 0.483-0.55 0.558-0.916 0.072-0.364 0.108-0.718 0.107-1.063v0-4.819c0-0.358-0.036-0.717-0.107-1.075-0.074-0.358-0.254-0.661-0.538-0.908-0.287-0.244-0.762-0.366-1.425-0.366v0c-0.531 0-0.946 0.073-1.247 0.219-0.297 0.146-0.508 0.334-0.633 0.566-0.127 0.234-0.204 0.486-0.231 0.756-0.027 0.273-0.04 0.543-0.04 0.808v0 4.819c0 0.265 0.013 0.534 0.04 0.804 0.027 0.273 0.1 0.526 0.219 0.757 0.119 0.234 0.323 0.423 0.609 0.569 0.284 0.146 0.685 0.219 1.203 0.219zM309.553 230.838h-0.319v-12.543h0.319zM314.471 230.978v0c-0.571 0-1.018-0.077-1.342-0.231-0.327-0.151-0.563-0.353-0.709-0.606-0.146-0.252-0.239-0.535-0.279-0.848-0.04-0.311-0.06-0.619-0.06-0.924v0-4.937c0-0.305 0.02-0.611 0.06-0.916 0.04-0.305 0.137-0.588 0.291-0.848 0.151-0.258 0.393-0.463 0.725-0.617 0.332-0.151 0.796-0.227 1.393-0.227v0c0.73 0 1.261 0.133 1.593 0.398 0.332 0.265 0.548 0.597 0.649 0.995 0.098 0.398 0.147 0.803 0.147 1.215v0 4.937c0 0.411-0.049 0.816-0.147 1.215-0.101 0.398-0.324 0.73-0.669 0.995-0.345 0.265-0.896 0.398-1.652 0.399zM314.471 230.659v0c0.69 0 1.185-0.123 1.485-0.37 0.297-0.244 0.483-0.55 0.557-0.916 0.072-0.364 0.108-0.718 0.108-1.063v0-4.819c0-0.358-0.036-0.717-0.108-1.075-0.074-0.358-0.254-0.661-0.537-0.908-0.287-0.244-0.762-0.366-1.426-0.366v0c-0.531 0-0.945 0.073-1.242 0.219-0.3 0.146-0.512 0.334-0.637 0.566-0.127 0.234-0.204 0.486-0.231 0.756-0.027 0.273-0.04 0.543-0.04 0.808v0 4.819c0 0.265 0.013 0.534 0.04 0.804 0.027 0.273 0.1 0.526 0.219 0.757 0.119 0.234 0.323 0.423 0.609 0.569 0.284 0.146 0.685 0.219 1.203 0.219zM319.787 230.838h-0.319v-9.855h0.279l0.04 0.995c0.146-0.305 0.389-0.575 0.728-0.808 0.337-0.231 0.818-0.346 1.442-0.346v0c0.783 0 1.334 0.142 1.652 0.426 0.319 0.287 0.524 0.629 0.618 1.027v0c0.146-0.451 0.411-0.807 0.796-1.067 0.385-0.258 0.883-0.386 1.493-0.386v0c0.557 0 0.999 0.076 1.326 0.227 0.324 0.154 0.559 0.36 0.705 0.617 0.146 0.26 0.239 0.543 0.279 0.848 0.04 0.305 0.06 0.611 0.059 0.916v0 7.406h-0.318v-7.227c0-0.398-0.033-0.787-0.1-1.167-0.066-0.377-0.242-0.689-0.525-0.936-0.287-0.244-0.762-0.366-1.426-0.366v0c-0.73 0-1.264 0.212-1.601 0.637-0.34 0.425-0.536 0.976-0.589 1.653v0 7.406h-0.318v-7.227c0-0.398-0.033-0.787-0.1-1.167-0.066-0.377-0.242-0.689-0.526-0.936-0.287-0.244-0.762-0.366-1.425-0.366v0c-0.73 0-1.261 0.182-1.593 0.546-0.332 0.366-0.524 0.835-0.577 1.405v0zM333.843 230.978v0c-0.664 0-1.142-0.104-1.433-0.311-0.292-0.204-0.504-0.459-0.638-0.765v0l-0.039 0.936h-0.279v-12.543h0.318v3.604c0.133-0.292 0.356-0.544 0.669-0.757 0.311-0.212 0.778-0.319 1.402-0.318v0c0.557 0 0.999 0.076 1.326 0.227 0.324 0.154 0.559 0.36 0.705 0.617 0.146 0.26 0.239 0.543 0.279 0.848 0.04 0.305 0.06 0.611 0.059 0.916v0 4.937c0 0.411-0.04 0.816-0.119 1.215-0.08 0.398-0.285 0.73-0.617 0.995-0.332 0.265-0.876 0.398-1.633 0.399zM333.843 230.659v0c0.65 0 1.119-0.123 1.406-0.37 0.284-0.244 0.463-0.559 0.537-0.944 0.072-0.385 0.108-0.77 0.108-1.155v0-4.699c0-0.358-0.036-0.717-0.108-1.075-0.074-0.358-0.254-0.661-0.537-0.908-0.287-0.244-0.755-0.366-1.406-0.366v0c-0.81 0-1.357 0.232-1.641 0.697-0.287 0.465-0.43 1.035-0.43 1.712v0 4.639c0 0.385 0.031 0.77 0.092 1.155 0.058 0.385 0.231 0.7 0.518 0.944 0.284 0.247 0.771 0.37 1.461 0.37zM339.059 230.838h-0.318v-9.855h0.318zM338.9 219.569v0c-0.186 0-0.279-0.093-0.279-0.279v0c0-0.186 0.093-0.279 0.279-0.278v0c0.186 0 0.279 0.093 0.279 0.278v0c0 0.186-0.093 0.279-0.279 0.279zM343.599 230.918v0c-0.305 0-0.62-0.053-0.944-0.159-0.327-0.106-0.603-0.323-0.828-0.649-0.226-0.324-0.338-0.824-0.338-1.502v0-0.677c0-0.425 0.097-0.796 0.29-1.115 0.191-0.319 0.423-0.588 0.697-0.808 0.271-0.218 0.536-0.397 0.796-0.537 0.258-0.138 0.446-0.24 0.566-0.307v0c0.531-0.292 0.946-0.548 1.246-0.769 0.297-0.218 0.512-0.443 0.645-0.677 0.133-0.231 0.199-0.512 0.199-0.844v0-0.278c0-0.451-0.096-0.776-0.286-0.976-0.194-0.199-0.437-0.325-0.729-0.378-0.292-0.053-0.591-0.08-0.896-0.08v0c-0.584 0-1.018 0.1-1.302 0.299-0.287 0.199-0.473 0.465-0.558 0.796-0.088 0.332-0.131 0.703-0.131 1.115v0 0.816h-0.318v-0.856c0-0.77 0.153-1.378 0.457-1.824 0.305-0.443 0.922-0.665 1.852-0.665v0c0.717 0 1.232 0.093 1.545 0.279 0.311 0.186 0.503 0.427 0.577 0.725 0.072 0.3 0.108 0.629 0.108 0.987v0 8.004h-0.299v-1.453c-0.159 0.465-0.441 0.836-0.844 1.115-0.406 0.279-0.908 0.418-1.505 0.418zM343.659 230.599v0c0.584 0 1.039-0.126 1.366-0.378 0.324-0.252 0.556-0.597 0.696-1.035 0.138-0.438 0.207-0.929 0.207-1.474v0-3.663c-0.212 0.292-0.5 0.547-0.864 0.764-0.366 0.22-0.742 0.443-1.127 0.669v0c-0.332 0.186-0.66 0.381-0.983 0.586-0.327 0.207-0.599 0.47-0.816 0.788-0.22 0.319-0.331 0.73-0.331 1.235v0 0.517c0 0.624 0.1 1.075 0.299 1.354 0.199 0.279 0.445 0.454 0.736 0.526 0.292 0.074 0.564 0.112 0.817 0.111z" fill="#ffffff" fill-rule="nonzero" stroke="none" stroke-width="1" stroke-linecap="butt" stroke-linejoin="miter" stroke-miterlimit="10" stroke-dasharray="" stroke-dashoffset="0" font-family="none" font-weight="none" font-size="none" text-anchor="none" style="mix-blend-mode: normal" data-fill-palette-color="secondary" id="text-1"></path></g></g><g transform="matrix(1,0,0,1,29.33176499999999,70.68353875775696)"><svg viewBox="0 0 316.416 71.65146248448606" height="71.65146248448606" width="316.416"><g><svg viewBox="0 0 316.416 71.65146248448606" height="71.65146248448606" width="316.416"><g><svg viewBox="0 0 316.416 71.65146248448606" height="71.65146248448606" width="316.416"><g><svg viewBox="0 0 316.416 71.65146248448606" height="71.65146248448606" width="316.416"><g id="textblocktransform"><svg viewBox="0 0 316.416 71.65146248448606" height="71.65146248448606" width="316.416" id="textblock"><g><svg viewBox="0 0 316.416 71.65146248448606" height="71.65146248448606" width="316.416"><g transform="matrix(1,0,0,1,0,0)"><svg width="316.416" viewBox="1.37 -38.01 216.35999999999999 49" height="71.65146248448606" data-palette-color="#556970"><path d="M18.02-26.1L18.02-26.1Q18.68-24.63 18.68-23.14 18.68-21.66 18.54-20.68 18.41-19.7 18.14-18.8L18.14-18.8Q17.53-16.75 16.41-15.65L16.41-15.65Q15.65-19.43 14.76-20.56 13.87-21.68 12.98-22.07 12.08-22.46 11.08-22.46 10.08-22.46 9.45-22.27 8.81-22.07 8.35-21.7L8.35-21.7Q7.3-20.9 7.3-19.87 7.3-18.85 7.81-18.1 8.33-17.36 9.17-16.71 10.01-16.06 11.08-15.45L11.08-15.45 13.28-14.21Q16.11-12.62 17.16-11.57L17.16-11.57Q19.24-9.5 19.24-7.2L19.24-7.2Q19.24-4.2 17.19-2.15L17.19-2.15Q14.6 0.49 9.42 0.49L9.42 0.49Q4.71 0.49 2.34-1.71L2.34-1.71Q1.66-2.34 1.37-2.98L1.37-2.98Q1.56-4.81 3-6.42L3-6.42Q4.39-7.98 5.71-8.23L5.71-8.23Q5.62-7.91 5.62-7.28 5.62-6.64 5.98-5.7 6.35-4.76 7.03-3.96L7.03-3.96Q8.57-2.1 10.5-2.1 12.43-2.1 13.33-2.98 14.23-3.86 14.23-4.98 14.23-6.1 13.72-6.86 13.21-7.62 12.37-8.28 11.52-8.94 10.45-9.55L10.45-9.55 8.25-10.79Q5.44-12.45 4.39-13.62L4.39-13.62Q2.29-15.97 2.29-18.73L2.29-18.73Q2.29-21.63 4.74-23.44L4.74-23.44Q7.06-25.15 10.52-25.15L10.52-25.15 14.82-24.85Q16.38-24.85 16.99-25.23 17.6-25.61 18.02-26.1ZM32.57 0L25.56 0Q26.68-3.86 26.68-13.26L26.68-13.26Q26.68-19.95 25.51-22.39L25.51-22.39Q25.22-23 24.85-23.54L24.85-23.54 24.05-24.66 32.52-24.66Q32.15-23.22 32.03-22.36L32.03-22.36 31.86-20.9Q34.69-25.15 39.07-25.15 43.45-25.15 44.75-20.39L44.75-20.39Q46.68-23.68 49.85-24.76L49.85-24.76Q50.97-25.15 52.38-25.15 53.78-25.15 54.92-24.55 56.05-23.95 56.83-22.85L56.83-22.85Q58.37-20.63 58.37-16.77L58.37-16.77 58.37-14.16Q58.37-6.69 58.58-4.8 58.79-2.91 58.88-2.29L58.88-2.29Q59.03-1.22 59.37 0L59.37 0 52.17 0Q53.24-3.69 53.24-13.26L53.24-13.26Q53.24-17.14 52.85-18.47 52.46-19.8 51.84-20.4 51.22-21 50.14-21L50.14-21Q46.99-21 45.14-17.29L45.14-17.29 45.14-14.16Q45.14-6.69 45.35-4.8 45.55-2.91 45.65-2.29L45.65-2.29Q45.8-1.22 46.14 0L46.14 0 38.94 0Q40.04-3.76 40.04-13.26L40.04-13.26Q40.04-17.24 39.65-18.52 39.26-19.8 38.64-20.4 38.03-21 36.97-21 35.91-21 35.06-20.58 34.2-20.17 33.52-19.48L33.52-19.48Q32.22-18.21 31.49-16.21L31.49-16.21Q31.44-15.5 31.44-14.75L31.44-14.75 31.44-13.26Q31.44-3.86 32.57 0L32.57 0ZM44.24-14.7L44.33-15.14 44.24-14.7ZM83.47-13.04L83.47-13.04 83.39-8.35Q83.39-3.98 84.2-2.39L84.2-2.39Q84.69-1.44 85.35-0.93L85.35-0.93 86.49 0 79.41 0 78.66-2.83Q75.9 0.49 70.8 0.49L70.8 0.49Q67.89 0.49 66.11-1.46L66.11-1.46Q64.55-3.22 64.55-5.62 64.55-8.01 65.68-9.79 66.82-11.57 68.67-12.74L68.67-12.74Q72.33-15.01 77.88-15.11L77.88-15.11 77.88-15.38Q77.88-21.31 76.04-22.34L76.04-22.34Q75.39-22.71 74.35-22.71 73.31-22.71 72.29-22.02 71.26-21.34 70.43-20.26L70.43-20.26Q68.77-18.09 68.06-15.14L68.06-15.14Q65.89-16.43 65.89-20.09L65.89-20.09Q65.89-21.58 66.28-23.44L66.28-23.44Q67.21-23.44 68.04-23.71L68.04-23.71 69.92-24.29Q72.68-25.15 75.31-25.15 77.95-25.15 79.52-24.37 81.1-23.58 81.98-22.05L81.98-22.05Q83.47-19.43 83.47-13.04ZM69.82-5.13Q69.82-3.61 70.52-2.78 71.21-1.95 72.26-1.95 73.31-1.95 74.29-2.5 75.26-3.05 76.04-4L76.04-4Q77.88-6.18 77.88-9.11L77.88-9.11 77.88-12.72Q74.46-12.4 72.24-10.45L72.24-10.45Q69.82-8.35 69.82-5.13L69.82-5.13ZM97.92 0L90.72 0Q91.84-3.86 91.84-13.26L91.84-13.26Q91.84-19.95 90.76-22.39L90.76-22.39Q90.32-23.39 89.2-24.66L89.2-24.66 97.87-24.66Q97.43-23.12 97.16-20.43L97.16-20.43Q99.46-23.32 103.56-24.51L103.56-24.51Q105.31-25.02 106.12-26.12L106.12-26.12Q106.93-24.19 106.93-22.8 106.93-21.41 106.78-20.23 106.63-19.04 106.34-17.92L106.34-17.92Q105.71-15.5 104.66-14.16L104.66-14.16Q103.75-18.92 101.85-19.73L101.85-19.73Q99.65-20.68 97.55-17.14L97.55-17.14Q97.11-16.41 96.82-15.58L96.82-15.58Q96.79-15.01 96.79-14.43 96.79-13.84 96.79-13.26L96.79-13.26Q96.79-3.86 97.92 0L97.92 0ZM117.37-34.42L117.37-34.42Q116.86-32.54 116.86-29.92 116.86-27.29 116.97-26.56 117.08-25.83 117.32-25.39L117.32-25.39Q117.79-24.66 119.13-24.66L119.13-24.66 125.67-24.66Q125.67-23.29 125.01-22.56L125.01-22.56Q123.82-21.24 122.08-21.24L122.08-21.24Q121.23-21.24 120.57-21.48L120.57-21.48Q119.37-21.97 118.72-21.97 118.06-21.97 117.64-21.72 117.23-21.46 116.98-20.97L116.98-20.97Q116.54-20.09 116.54-17.14 116.54-14.18 116.73-11.08 116.91-7.98 117.64-5.9 118.37-3.81 119.86-2.76 121.35-1.71 123.96-1.71L123.96-1.71Q123.96-0.95 122.94 0.1L122.94 0.1Q122.67 0.39 122.48 0.49L122.48 0.49Q118.15 0.49 116.01-0.54L116.01-0.54Q113.54-1.76 112.49-4.88L112.49-4.88Q111.44-8.06 111.44-14.28L111.44-14.28Q111.44-19.73 111.15-20.72 110.85-21.7 110.61-22.02L110.61-22.02Q110.32-22.39 109.19-22.92L109.19-22.92Q110.71-24.07 112.2-27.2L112.2-27.2 113.42-29.76Q114.71-32.69 115.63-33.56 116.54-34.42 117.37-34.42ZM160.61-26.12L160.61-26.12Q161.22-24.66 161.22-22.91 161.22-21.17 161.09-20.02 160.97-18.87 160.73-17.8L160.73-17.8Q160.21-15.53 159.14-14.16L159.14-14.16Q158.07-20.8 155.65-22.22L155.65-22.22Q154.79-22.71 153.81-22.71 152.82-22.71 152.08-22.24 151.35-21.78 150.84-20.9L150.84-20.9Q149.79-19.14 149.79-16.35 149.79-13.55 150.35-11.54 150.91-9.52 151.83-7.92 152.74-6.32 153.9-5.16 155.06-4 156.24-3.22L156.24-3.22Q158.6-1.71 160.43-1.71L160.43-1.71Q160.34-1.07 159.8-0.46 159.26 0.15 158.63 0.49L158.63 0.49Q156.04 0.49 152.69-1.27L152.69-1.27Q146.47-4.57 144.3-10.89L144.3-10.89Q143.49-13.21 143.49-15.64 143.49-18.07 144.05-19.74 144.61-21.41 145.69-22.61L145.69-22.61Q147.89-25.15 151.79-25.15L151.79-25.15Q153.11-25.15 154.36-24.98L154.36-24.98Q156.7-24.66 157.64-24.66 158.58-24.66 159.31-24.91 160.04-25.17 160.61-26.12ZM173.73-31.23Q173.22-30.42 172.52-29.87 171.81-29.32 170.91-29.32 170-29.32 169.29-29.87 168.59-30.42 168.1-31.23L168.1-31.23Q167.1-32.89 167.1-34.74L167.1-34.74Q167.1-36.99 169.15-37.74L169.15-37.74Q169.88-38.01 170.93-38.01L170.93-38.01Q173.84-38.01 174.54-35.96L174.54-35.96Q174.76-35.38 174.76-34.66 174.76-33.94 174.49-32.98 174.23-32.03 173.73-31.23ZM174.3 0L167.1 0Q168.22-3.86 168.22-13.26L168.22-13.26Q168.22-19.87 167.05-22.36L167.05-22.36Q166.75-23 166.39-23.54L166.39-23.54 165.58-24.66 174.25-24.66Q173.18-20.63 173.18-12.24 173.18-3.86 174.3 0L174.3 0ZM187.7-34.42L187.7-34.42Q187.19-32.54 187.19-29.92 187.19-27.29 187.3-26.56 187.41-25.83 187.65-25.39L187.65-25.39Q188.11-24.66 189.46-24.66L189.46-24.66 196-24.66Q196-23.29 195.34-22.56L195.34-22.56Q194.15-21.24 192.41-21.24L192.41-21.24Q191.56-21.24 190.9-21.48L190.9-21.48Q189.7-21.97 189.04-21.97 188.38-21.97 187.97-21.72 187.55-21.46 187.31-20.97L187.31-20.97Q186.87-20.09 186.87-17.14 186.87-14.18 187.05-11.08 187.24-7.98 187.97-5.9 188.7-3.81 190.19-2.76 191.68-1.71 194.29-1.71L194.29-1.71Q194.29-0.95 193.27 0.1L193.27 0.1Q193 0.39 192.8 0.49L192.8 0.49Q188.48 0.49 186.33-0.54L186.33-0.54Q183.87-1.76 182.82-4.88L182.82-4.88Q181.77-8.06 181.77-14.28L181.77-14.28Q181.77-19.73 181.47-20.72 181.18-21.7 180.94-22.02L180.94-22.02Q180.64-22.39 179.52-22.92L179.52-22.92Q181.03-24.07 182.52-27.2L182.52-27.2 183.74-29.76Q185.04-32.69 185.95-33.56 186.87-34.42 187.7-34.42ZM212.04-7.35L212.04-8.08 212.06-13.5Q212.06-18.6 211.79-20.17 211.53-21.73 211.37-22.35 211.21-22.97 210.99-23.51L210.99-23.51 210.52-24.66 217.73-24.66 217.6-23.54Q217.46-22.36 217.41-20.12L217.41-20.12 217.31-16.41Q217.19-12.13 217.19-8.42 217.19-4.71 216.74-2.08 216.29 0.56 215.53 2.56 214.77 4.57 213.8 6.02 212.82 7.47 211.75 8.45L211.75 8.45Q209.89 10.21 207.59 10.99L207.59 10.99Q207.11 10.79 206.65 10.27 206.2 9.74 206.11 9.28L206.11 9.28Q208.25 8.18 209.55 5.91L209.55 5.91Q211.38 2.69 211.87-3.39L211.87-3.39Q209.04 0.49 204.91 0.49L204.91 0.49Q201.98 0.49 200.37-1.81L200.37-1.81Q198.83-4.03 198.83-7.91L198.83-7.91 198.83-11.21Q198.83-12.3 198.81-13.45L198.81-13.45 198.81-15.67Q198.76-17.8 198.65-18.98 198.54-20.17 198.4-20.96 198.27-21.75 198.07-22.38 197.88-23 197.63-23.54L197.63-23.54 197.1-24.66 204.54-24.66Q203.91-21.17 203.91-11.45L203.91-11.45Q203.91-7.5 204.32-6.18 204.74-4.86 205.36-4.26 205.98-3.66 206.96-3.66 207.94-3.66 208.68-3.97 209.43-4.27 210.04-4.79L210.04-4.79Q211.23-5.71 212.04-7.35L212.04-7.35ZM212.82-9.42L212.97-10.01 212.82-9.42Z" opacity="1" transform="matrix(1,0,0,1,0,0)" fill="#ffffff" class="wordmark-text-0" data-fill-palette-color="primary" id="text-0"></path></svg></g></svg></g></svg></g></svg></g></svg></g></svg></g></svg></g></svg></g><defs></defs></svg><rect width="375.07953" height="213.01854" fill="none" stroke="none" visibility="hidden"></rect></g></svg></g></svg>